# xmcd
#
# Track frame offsets: 
#        182
#        15665
#        29092
#        42575
#        62377
#        83455
#        94970
#        113895
#        129417
#        143500
#        164465
#        176562
#
# Disc length: 2529 seconds
#
# Revision: 1
# Processed by: cddbd v1.5.2PL0 Copyright (c) Steve Scherf et al.
# Submitted via: ExactAudioCopy v0.99pb5
#
DISCID=9809df0c
DTITLE=Andy Bey - Experience And Judgment
DYEAR=1974
DGENRE=Jazz
TTITLE0=Celestial Blues
TTITLE1=Experience
TTITLE2=Judgment
TTITLE3=I Know This Love Can't Be Wrong
TTITLE4=Hibiscus
TTITLE5=You Should've Seen The Way
TTITLE6=Tune Up
TTITLE7=Rosemary Blue
TTITLE8=Being Uptight
TTITLE9=A Place Where Love Is
TTITLE10=Trust Us To Find The Way
TTITLE11=The Power Of My Mind
EXTD=YEAR: 1974
EXTT0=
EXTT1=
EXTT2=
EXTT3=
EXTT4=
EXTT5=
EXTT6=
EXTT7=
EXTT8=
EXTT9=
EXTT10=
EXTT11=
PLAYORDER=
